<?xml version="1.0" encoding="utf-8"?>
<!-- Generator: Adobe Illustrator 18.1.1, SVG Export Plug-In . SVG Version: 6.00 Build 0)  -->
<svg version="1.1" id="Layer_1" xmlns="http://www.w3.org/2000/svg" xmlns:xlink="http://www.w3.org/1999/xlink" x="0px" y="0px"
	 viewBox="0 0 321 418" enable-background="new 0 0 321 418" xml:space="preserve">
<g>
	<defs>
		
			<rect id="SVGID_1_" x="-519.8" y="99.3" transform="matrix(-0.9681 0.2505 -0.2505 -0.9681 -747.3301 519.8374)" width="226.1" height="226.1"/>
	</defs>
	<clipPath id="SVGID_2_">
		<use xlink:href="#SVGID_1_"  overflow="visible"/>
	</clipPath>
	<path clip-path="url(#SVGID_2_)" fill="none" stroke="#203C72" stroke-miterlimit="10" d="M345.8,71.1
		c-14.3-4.4-13.6-16.3-12.8-28.8l-38.7,0.3c1,12.5,1.9,24.4-12.3,29.1c4.7,11.2,17.3,19.1,32.1,18.9
		C328.8,90.4,341.3,82.3,345.8,71.1"/>
	<path clip-path="url(#SVGID_2_)" fill="none" stroke="#203C72" stroke-miterlimit="10" d="M345.8,71.1
		c-14.3-4.4-13.6-16.3-12.8-28.8l-19.4,0.2l0.4,48.2C328.8,90.4,341.3,82.3,345.8,71.1"/>
	<path clip-path="url(#SVGID_2_)" fill="none" stroke="#203C72" stroke-miterlimit="10" d="M313.7,53.5
		c-18.5,0.2-33.5-14.7-33.7-33.1l-0.2-24.2c-0.1-8.7,6.9-22,15.5-22.1L313-26l17.7-0.2c8.7-0.1,15.8,13.2,15.9,21.8l0.2,24.2
		C347,38.3,332.1,53.3,313.7,53.5"/>
	<path clip-path="url(#SVGID_2_)" fill="none" stroke="#203C72" stroke-miterlimit="10" d="M313-23c-20.9,0.2-33.2,16.6-33.1,36.8
		c0,0.2,0.4,45,0.4,45.3c-14.9,0.1-38.1-108,32.4-108.7L313-23z"/>
	<path clip-path="url(#SVGID_2_)" fill="none" stroke="#203C72" stroke-miterlimit="10" d="M314.1,103.6l63.2-0.6l0-1.6
		c-0.1-15.2-11.7-26.9-26.5-29.3c-1.9-0.3-3.5-0.7-5.1-1.2c-4.5,11.2-17.1,14.5-31.8,14.6c-14.8,0.1-27.4-2.9-32.1-14
		c-1.5,0.5-3.2,0.9-5,1.2c-14.7,2.6-26.1,14.5-25.9,29.7l0,1.6L314.1,103.6z"/>
	<path clip-path="url(#SVGID_2_)" fill="none" stroke="#203C72" stroke-miterlimit="10" d="M314.1,103.6l63.2-0.6l0-1.6
		c-0.1-15.2-11.7-26.9-26.5-29.3c-1.9-0.3-3.5-0.7-5.1-1.2c-4.5,11.2-17.1,14.5-31.8,14.6L314.1,103.6z"/>
	<path clip-path="url(#SVGID_2_)" fill="none" stroke="#203C72" stroke-miterlimit="10" d="M313-23c0.3,29.2,33.5,16.1,33.7,36.2
		c0,0.2,0.4,45,0.4,45.3c14.9-0.1,36.1-108.7-34.3-108.1L313-23z"/>
</g>
<rect x="171.9" y="83.7" fill="none" stroke="#003875" stroke-miterlimit="10" width="81" height="140.7"/>
<rect x="165.3" y="222.2" fill="#003875" width="93.1" height="12.8"/>
<rect x="167.9" y="78.5" fill="#003875" width="89.1" height="6.5"/>
<rect x="178.1" y="92.8" fill="#003875" width="13.5" height="8.5"/>
<rect x="196.4" y="92.8" fill="#003875" width="13.5" height="8.5"/>
<rect x="214.8" y="92.8" fill="#003875" width="13.5" height="8.5"/>
<rect x="233.2" y="92.8" opacity="0.5" fill="#003875" width="13.5" height="8.5"/>
<rect x="178.1" y="104" opacity="0.5" fill="#003875" width="13.5" height="8.5"/>
<rect x="196.4" y="104" opacity="0.5" fill="#003875" width="13.5" height="8.5"/>
<rect x="214.8" y="104" fill="#003875" width="13.5" height="8.5"/>
<rect x="233.2" y="104" fill="#003875" width="13.5" height="8.5"/>
<rect x="178.1" y="115.2" fill="#003875" width="13.5" height="8.5"/>
<rect x="196.4" y="115.2" fill="#003875" width="13.5" height="8.5"/>
<rect x="214.8" y="115.2" fill="#003875" width="13.5" height="8.5"/>
<rect x="233.2" y="115.2" fill="#003875" width="13.5" height="8.5"/>
<rect x="178.1" y="126.4" fill="#003875" width="13.5" height="8.5"/>
<rect x="196.4" y="126.4" fill="#003875" width="13.5" height="8.5"/>
<rect x="214.8" y="126.4" opacity="0.5" fill="#003875" width="13.5" height="8.5"/>
<rect x="233.2" y="126.4" opacity="0.5" fill="#003875" width="13.5" height="8.5"/>
<rect x="178.1" y="137.6" fill="#003875" width="13.5" height="8.5"/>
<rect x="196.4" y="137.6" fill="#003875" width="13.5" height="8.5"/>
<rect x="214.8" y="137.6" fill="#003875" width="13.5" height="8.5"/>
<rect x="233.2" y="137.6" fill="#003875" width="13.5" height="8.5"/>
<rect x="178.1" y="148.8" fill="#003875" width="13.5" height="8.5"/>
<rect x="196.4" y="148.8" opacity="0.5" fill="#003875" width="13.5" height="8.5"/>
<rect x="214.8" y="148.8" fill="#003875" width="13.5" height="8.5"/>
<rect x="233.2" y="148.8" fill="#003875" width="13.5" height="8.5"/>
<rect x="178.1" y="160" fill="#003875" width="13.5" height="8.5"/>
<rect x="196.4" y="160" fill="#003875" width="13.5" height="8.5"/>
<rect x="214.8" y="160" fill="#003875" width="13.5" height="8.5"/>
<rect x="233.2" y="160" fill="#003875" width="13.5" height="8.5"/>
<rect x="178.1" y="171.3" fill="#003875" width="13.5" height="8.5"/>
<rect x="196.4" y="171.3" fill="#003875" width="13.5" height="8.5"/>
<rect x="214.8" y="171.3" opacity="0.5" fill="#003875" width="13.5" height="8.5"/>
<rect x="233.2" y="171.3" opacity="0.5" fill="#003875" width="13.5" height="8.5"/>
<rect x="178.1" y="182.5" fill="#003875" width="13.5" height="8.5"/>
<rect x="196.4" y="182.5" opacity="0.5" fill="#003875" width="13.5" height="8.5"/>
<rect x="214.8" y="182.5" fill="#003875" width="13.5" height="8.5"/>
<rect x="233.2" y="182.5" fill="#003875" width="13.5" height="8.5"/>
<rect x="178.1" y="193.7" fill="#003875" width="13.5" height="8.5"/>
<rect x="196.4" y="193.7" fill="#003875" width="13.5" height="8.5"/>
<rect x="214.8" y="193.7" opacity="0.5" fill="#003875" width="13.5" height="8.5"/>
<rect x="233.2" y="193.7" fill="#003875" width="13.5" height="8.5"/>
<polygon fill="#003875" points="62.7,126.3 151.8,126.3 107.2,117.8 "/>
<rect x="66.8" y="132.6" fill="none" stroke="#003875" stroke-miterlimit="10" width="81" height="91.9"/>
<rect x="63.3" y="221.6" fill="#003875" width="87.9" height="13.9"/>
<rect x="63.3" y="222.7" fill="#003875" width="13.2" height="12.8"/>
<rect x="70.7" y="222.7" opacity="0.75" fill="#003875" width="80.5" height="12.8"/>
<rect x="72.9" y="141.6" fill="#003875" width="13.5" height="8.5"/>
<rect x="91.3" y="141.6" fill="#003875" width="13.5" height="8.5"/>
<rect x="109.7" y="141.6" fill="#003875" width="13.5" height="8.5"/>
<rect x="128" y="141.6" fill="#003875" width="13.5" height="8.5"/>
<rect x="72.9" y="152.8" opacity="0.5" fill="#003875" width="13.5" height="8.5"/>
<rect x="91.3" y="152.8" opacity="0.5" fill="#003875" width="13.5" height="8.5"/>
<rect x="109.7" y="152.8" fill="#003875" width="13.5" height="8.5"/>
<rect x="128" y="152.8" fill="#003875" width="13.5" height="8.5"/>
<rect x="72.9" y="164" fill="#003875" width="13.5" height="8.5"/>
<rect x="91.3" y="164" fill="#003875" width="13.5" height="8.5"/>
<rect x="109.7" y="164" fill="#003875" width="13.5" height="8.5"/>
<rect x="128" y="164" fill="#003875" width="13.5" height="8.5"/>
<rect x="72.9" y="175.2" fill="#003875" width="13.5" height="8.5"/>
<rect x="91.3" y="175.2" opacity="0.5" fill="#003875" width="13.5" height="8.5"/>
<rect x="109.7" y="175.2" fill="#003875" width="13.5" height="8.5"/>
<rect x="128" y="175.2" fill="#003875" width="13.5" height="8.5"/>
<rect x="72.9" y="186.5" fill="#003875" width="13.5" height="8.5"/>
<rect x="91.3" y="186.5" fill="#003875" width="13.5" height="8.5"/>
<rect x="109.7" y="186.5" fill="#003875" width="13.5" height="8.5"/>
<rect x="128" y="186.5" fill="#003875" width="13.5" height="8.5"/>
<rect x="72.9" y="197.7" fill="#003875" width="13.5" height="8.5"/>
<rect x="91.3" y="197.7" fill="#003875" width="13.5" height="8.5"/>
<rect x="109.7" y="197.7" opacity="0.5" fill="#003875" width="13.5" height="8.5"/>
<rect x="128" y="197.7" opacity="0.5" fill="#003875" width="13.5" height="8.5"/>
<rect x="72.9" y="208.9" fill="#003875" width="13.5" height="8.5"/>
<rect x="91.3" y="208.9" fill="#003875" width="13.5" height="8.5"/>
<rect x="109.7" y="208.9" fill="#003875" width="13.5" height="8.5"/>
<rect x="128" y="208.9" fill="#003875" width="13.5" height="8.5"/>
<rect x="62.7" y="126.3" opacity="0.75" fill="#003875" width="89.1" height="6.5"/>
</svg>
