<?xml version="1.0" encoding="utf-8"?>
<!-- Generator: Adobe Illustrator 18.1.1, SVG Export Plug-In . SVG Version: 6.00 Build 0)  -->
<svg version="1.1" id="Layer_1" xmlns="http://www.w3.org/2000/svg" xmlns:xlink="http://www.w3.org/1999/xlink" x="0px" y="0px"
	 viewBox="0 0 321 418" enable-background="new 0 0 321 418" xml:space="preserve">
<g>
	<defs>
		<rect id="SVGID_29_" x="66.9" y="84.9" width="183.1" height="225.4"/>
	</defs>
	<clipPath id="SVGID_2_">
		<use xlink:href="#SVGID_29_"  overflow="visible"/>
	</clipPath>
	<path clip-path="url(#SVGID_2_)" fill="#003875" d="M153.6,144v-29.6c0-1.9,1.5-3.4,3.4-3.4h1.2c1.9,0,3.4,1.5,3.4,3.4V144H153.6z"
		/>
</g>
<polygon fill="#003875" points="108.9,174.8 113.5,170.1 85.8,142.3 81.1,147 "/>
<g>
	<defs>
		<rect id="SVGID_31_" x="66.9" y="84.9" width="183.1" height="225.4"/>
	</defs>
	<clipPath id="SVGID_4_">
		<use xlink:href="#SVGID_31_"  overflow="visible"/>
	</clipPath>
	<path clip-path="url(#SVGID_4_)" fill="#003875" d="M84.7,157.1l-5.2-5.2c-1.1-1.1-1-2.8,0-3.8l7.8-7.7c1.1-1.1,2.8-1.1,3.8,0
		l5.2,5.2L84.7,157.1z"/>
</g>
<polygon fill="#003875" points="206.1,174.8 201.4,170.1 229.2,142.3 233.9,147 "/>
<g>
	<defs>
		<rect id="SVGID_33_" x="66.9" y="84.9" width="183.1" height="225.4"/>
	</defs>
	<clipPath id="SVGID_6_">
		<use xlink:href="#SVGID_33_"  overflow="visible"/>
	</clipPath>
	<path clip-path="url(#SVGID_6_)" fill="#003875" d="M230.3,157.1l5.2-5.2c1.1-1.1,1.1-2.8,0-3.8l-7.8-7.7c-1.1-1.1-2.8-1.1-3.8,0
		l-5.2,5.2L230.3,157.1z"/>
	<path clip-path="url(#SVGID_6_)" fill="#003875" d="M146.7,89c-7.4,0-13.5,6-13.5,13.5s6,13.5,13.5,13.5h23.4
		c7.4,0,13.5-6,13.5-13.5s-6-13.5-13.5-13.5H146.7z M170.1,120h-23.4c-9.7,0-17.5-7.9-17.5-17.5s7.9-17.5,17.5-17.5h23.4
		c9.7,0,17.5,7.9,17.5,17.5S179.8,120,170.1,120"/>
	<path clip-path="url(#SVGID_6_)" fill="#003875" d="M158.4,300.5c-45.1,0-81.7-36.7-81.7-81.7c0-45.1,36.7-81.7,81.7-81.7
		c45.1,0,81.7,36.7,81.7,81.7C240.2,263.8,203.5,300.5,158.4,300.5 M158.4,127.2c-50.5,0-91.6,41.1-91.6,91.6
		c0,50.5,41.1,91.6,91.6,91.6c50.5,0,91.6-41.1,91.6-91.6C250,168.3,208.9,127.2,158.4,127.2"/>
	<path clip-path="url(#SVGID_6_)" fill="#4E5E6D" d="M163.6,218.8c0,2.8-2.3,5.1-5.1,5.1c-2.8,0-5.1-2.3-5.1-5.1
		c0-2.8,2.3-5.1,5.1-5.1C161.3,213.6,163.6,215.9,163.6,218.8"/>
</g>
<rect x="92.7" y="251.6" transform="matrix(0.8662 -0.4997 0.4997 0.8662 -113.3042 82.7814)" fill="#003875" width="10.5" height="2.8"/>
<polygon fill="#003875" points="221.1,180.2 212,185.5 213.4,187.9 222.5,182.7 "/>
<rect x="85.8" y="234.9" transform="matrix(0.9658 -0.2591 0.2591 0.9658 -58.1371 31.6677)" fill="#003875" width="10.5" height="2.8"/>
<polygon fill="#003875" points="228.8,198 218.7,200.7 219.5,203.4 229.6,200.7 "/>
<polygon fill="#003875" points="111.6,262.5 104.2,270 106.2,272 113.6,264.5 "/>
<polygon fill="#003875" points="209,165.1 201.6,172.5 203.6,174.5 211,167.1 "/>
<polygon fill="#003875" points="124.5,272.9 119.3,282 121.8,283.4 127,274.3 "/>
<polygon fill="#003875" points="193.4,153.6 188.2,162.7 190.6,164.1 195.9,155 "/>
<polygon fill="#003875" points="139.8,279.6 137,289.8 139.8,290.5 142.5,280.4 "/>
<polygon fill="#003875" points="175.4,146.5 172.7,156.7 175.4,157.4 178.1,147.3 "/>
<rect x="156.2" y="144.4" fill="#003875" width="2.8" height="15.5"/>
<polygon fill="#003875" points="139.8,146.5 137,147.3 139.8,157.4 142.5,156.7 "/>
<rect x="121.7" y="153.6" transform="matrix(0.8661 -0.4999 0.4999 0.8661 -62.9171 82.8281)" fill="#003875" width="2.8" height="10.5"/>
<polygon fill="#868B98" points="106.2,165.1 104.2,167.1 111.6,174.5 113.6,172.5 "/>
<polygon fill="#003875" points="94.1,180.2 92.7,182.7 101.8,187.9 103.2,185.5 "/>
<polygon fill="#003875" points="86.3,198 85.6,200.7 95.8,203.4 96.5,200.7 "/>
<polygon fill="#003875" points="83.5,217.1 83.5,219.9 99,219.9 99,217.1 "/>
<g>
	<defs>
		<rect id="SVGID_35_" x="66.9" y="84.9" width="183.1" height="225.4"/>
	</defs>
	<clipPath id="SVGID_8_">
		<use xlink:href="#SVGID_35_"  overflow="visible"/>
	</clipPath>
	<path opacity="0.5" clip-path="url(#SVGID_8_)" fill="#003875" d="M240.1,215.6h-77.7c0.7,0.9,1.1,2,1.1,3.2c0,2.8-2.3,5.1-5.1,5.1
		c-1.1,0-2.2-0.4-3-1v77.6c1,0,2,0.1,3,0.1c45.1,0,81.7-36.7,81.7-81.7C240.2,217.7,240.1,216.6,240.1,215.6 M216.2,217.1h15.5v2.8
		h-15.5V217.1z M228.8,239.1l-10.1-2.7l0.7-2.7l10.1,2.7L228.8,239.1z M221.1,256.8l-9.1-5.2l1.4-2.5l9.1,5.2L221.1,256.8z M209,272
		l-7.4-7.4l2-2l7.4,7.4L209,272z M193.4,283.4l-5.2-9.1l2.4-1.4l5.3,9.1L193.4,283.4z M156.2,277.2h2.8v15.5h-2.8V277.2z
		 M175.4,290.5l-2.7-10.1l2.7-0.7l2.7,10.1L175.4,290.5z"/>
	<path clip-path="url(#SVGID_8_)" fill="#3B5C67" d="M162.4,215.6h-7v7.3c0.8,0.6,1.9,1,3,1c2.8,0,5.1-2.3,5.1-5.1
		C163.6,217.6,163.1,216.4,162.4,215.6"/>
</g>
<rect x="156.2" y="277.2" fill="#003875" width="2.8" height="15.5"/>
<rect x="174" y="279.8" transform="matrix(0.966 -0.2585 0.2585 0.966 -67.7398 55.0483)" fill="#003875" width="2.8" height="10.5"/>
<polygon fill="#003875" points="190.6,272.9 188.2,274.4 193.4,283.4 195.9,282 "/>
<rect x="215.8" y="247.7" transform="matrix(0.4993 -0.8664 0.8664 0.4993 -110.3997 314.9047)" fill="#003875" width="2.8" height="10.5"/>
<polygon fill="#003875" points="219.4,233.6 218.7,236.4 228.8,239.1 229.6,236.3 "/>
<rect x="216.2" y="217.1" fill="#64838E" width="15.5" height="2.8"/>
<polygon fill="#003875" points="203.6,262.5 201.6,264.5 209,272 211,269.9 "/>
<g>
	<defs>
		<rect id="SVGID_37_" x="66.9" y="84.9" width="183.1" height="225.4"/>
	</defs>
	<clipPath id="SVGID_10_">
		<use xlink:href="#SVGID_37_"  overflow="visible"/>
	</clipPath>
	<path clip-path="url(#SVGID_10_)" fill="#003875" d="M160.8,262.5c0,1.5-1.2,2.8-2.8,2.8s-2.8-1.2-2.8-2.8v-44.3
		c0-1.5,1.2-2.8,2.8-2.8s2.8,1.3,2.8,2.8V262.5z"/>
	<path clip-path="url(#SVGID_10_)" fill="#003875" d="M230.1,215.6c1.5,0,2.8,1.3,2.8,2.8c0,1.5-1.2,2.8-2.8,2.8h-72.4
		c-1.5,0-2.8-1.2-2.8-2.8c0-1.5,1.3-2.8,2.8-2.8H230.1z"/>
	<path clip-path="url(#SVGID_10_)" fill="#003875" d="M151.9,218.7c0-3.6,2.9-6.5,6.5-6.5c3.6,0,6.5,2.9,6.5,6.5
		c0,3.6-2.9,6.5-6.5,6.5C154.8,225.2,151.9,222.3,151.9,218.7"/>
</g>
<rect x="92.5" y="196.3" transform="matrix(-0.7071 -0.7071 0.7071 -0.7071 94.9493 435.2375)" fill="#003875" width="90.3" height="3.2"/>
<g>
	<defs>
		<rect id="SVGID_39_" x="66.9" y="84.9" width="183.1" height="225.4"/>
	</defs>
	<clipPath id="SVGID_12_">
		<use xlink:href="#SVGID_39_"  overflow="visible"/>
	</clipPath>
	<path clip-path="url(#SVGID_12_)" fill="#003875" d="M158.4,127.2c-24.3,0-46.4,9.5-62.8,25c-1.6,1.5-3.2,3.1-4.7,4.7
		c-15,16.3-24.1,38.1-24.1,61.9c0,50.5,41.1,91.6,91.6,91.6c50.5,0,91.6-41.1,91.6-91.6c0-24.3-9.5-46.5-25-62.9
		c-1.5-1.6-3.1-3.2-4.7-4.6C203.9,136.3,182.2,127.2,158.4,127.2 M158.4,304.5c-0.4,0-0.8,0-1.3,0c-46.7-0.7-84.5-38.8-84.5-85.7
		c0-46.9,37.8-85,84.5-85.7c0.4,0,0.8,0,1.3,0c47.3,0,85.7,38.4,85.7,85.7C244.2,266,205.7,304.5,158.4,304.5"/>
	<path clip-path="url(#SVGID_12_)" fill="#003875" d="M158.4,133.1c-0.4,0-0.8,0-1.3,0c-46.7,0.7-84.5,38.8-84.5,85.7
		c0,46.8,37.8,85,84.5,85.7c0.4,0,0.8,0,1.3,0c47.3,0,85.7-38.5,85.7-85.7C244.2,171.5,205.7,133.1,158.4,133.1 M155.4,300.5
		c-43.7-1.6-78.7-37.6-78.7-81.7c0-45.1,36.7-81.7,81.7-81.7c44,0,80,34.9,81.7,78.5h1.6c0,1.1,0.1,2.1,0.1,3.2
		c0,46-37.4,83.4-83.4,83.4c-1,0-2,0-3-0.1V300.5z"/>
	<path clip-path="url(#SVGID_12_)" fill="#003875" d="M241.7,215.6h-1.6c0,1.1,0.1,2.1,0.1,3.2c0,45.1-36.7,81.7-81.7,81.7
		c-1,0-2,0-3-0.1v1.6c1,0,2,0.1,3,0.1c46,0,83.4-37.4,83.4-83.4C241.8,217.7,241.7,216.6,241.7,215.6"/>
</g>
<g>
	<g>
		<defs>
			<rect id="SVGID_41_" x="18" y="103.5" width="174" height="163.2"/>
		</defs>
		<clipPath id="SVGID_14_">
			<use xlink:href="#SVGID_41_"  overflow="visible"/>
		</clipPath>
	</g>
	<g>
		<defs>
			<rect id="SVGID_43_" x="18" y="103.5" width="174" height="163.2"/>
		</defs>
		<clipPath id="SVGID_16_">
			<use xlink:href="#SVGID_43_"  overflow="visible"/>
		</clipPath>
	</g>
</g>
</svg>
